<?xml version="1.0" encoding="UTF-8"?>
<svg xmlns="http://www.w3.org/2000/svg" xmlns:xlink="http://www.w3.org/1999/xlink" viewBox="0 0 151.13 116.22">
  <defs>
    <style>
      .cls-1 {
        fill: url(#linear-gradient);
      }

      .cls-2 {
        isolation: isolate;
      }

      .cls-3 {
        fill: url(#linear-gradient-2);
        mix-blend-mode: overlay;
      }
    </style>
    <linearGradient id="linear-gradient" x1="0" y1="58.11" x2="151.13" y2="58.11" gradientUnits="userSpaceOnUse">
      <stop offset="0" stop-color="#ff9100"/>
      <stop offset="1" stop-color="#ffc700"/>
    </linearGradient>
    <linearGradient id="linear-gradient-2" x1="-8.97" y1="125.28" x2="134.22" y2="11.51" gradientUnits="userSpaceOnUse">
      <stop offset="0" stop-color="#fff"/>
      <stop offset="1" stop-color="#424242"/>
    </linearGradient>
  </defs>
  <g class="cls-2">
    <g id="Layer_2" data-name="Layer 2">
      <g id="Layer_1-2" data-name="Layer 1">
        <g>
          <polygon class="cls-1" points="98.06 58.55 151.13 0 105.33 0 80.34 27.57 64.57 0 22.33 0 0 38.74 42.24 38.74 53.07 57.67 0 116.22 45.8 116.22 70.79 88.65 86.56 116.22 128.8 116.22 151.13 77.48 108.89 77.48 98.06 58.55"/>
          <polygon class="cls-3" points="98.06 58.55 151.13 0 105.33 0 80.34 27.57 64.57 0 22.33 0 0 38.74 42.24 38.74 53.07 57.67 0 116.22 45.8 116.22 70.79 88.65 86.56 116.22 128.8 116.22 151.13 77.48 108.89 77.48 98.06 58.55"/>
        </g>
      </g>
    </g>
  </g>
</svg>
