<?xml version="1.0" encoding="UTF-8"?>
<svg id="Layer_2" data-name="Layer 2" xmlns="http://www.w3.org/2000/svg" viewBox="0 0 685.96 180">
  <defs>
    <style>
      .cls-1 {
        fill: #fff;
      }

      .cls-2 {
        fill: #ffc700;
      }
    </style>
  </defs>
  <g id="Layer_1-2" data-name="Layer 1">
    <g>
      <g>
        <polygon class="cls-2" points="88.89 46.67 66.67 80 0 0 50 0 88.89 46.67"/>
        <polygon class="cls-2" points="200 180 150 180 97.3 116.76 129.73 95.68 200 180"/>
        <polygon class="cls-2" points="200 0 114.29 77.14 85.71 102.86 0 180 150 0 200 0"/>
      </g>
      <path class="cls-1" d="M276.61,40c4.21,0,7.81.27,10.82.81,3,.54,5.17,1.05,6.49,1.53l-2.34,14.43c-1.32-.48-3.13-.99-5.41-1.53-2.29-.54-5.05-.81-8.3-.81-7.82,0-13.29,2.14-16.41,6.4-3.13,4.27-4.69,10.01-4.69,17.22v8.12h36.07v14.07h-36.07v79.71h-16.77v-102.25c0-12.02,2.94-21.31,8.84-27.86,5.89-6.55,15.15-9.83,27.77-9.83Z"/>
      <path class="cls-1" d="M322.46,69.21c-3.01,0-5.56-.99-7.66-2.98-2.1-1.98-3.16-4.66-3.16-8.03s1.05-6.04,3.16-8.02c2.1-1.98,4.66-2.98,7.66-2.98s5.56.99,7.66,2.98c2.1,1.98,3.16,4.66,3.16,8.02s-1.05,6.04-3.16,8.03c-2.1,1.98-4.66,2.98-7.66,2.98Z"/>
      <rect class="cls-1" x="314.16" y="86.17" width="16.77" height="93.77"/>
      <path class="cls-1" d="M380.04,180c-10.34-.24-17.96-2.52-22.29-6.73-4.33-4.21-6.49-10.76-6.49-19.66V43.6l16.77-2.89v110.2c0,2.77.24,5.05.72,6.85.48,1.8,1.26,3.25,2.34,4.33,1.08,1.08,2.53,1.89,4.33,2.43,1.8.54,1.97.85,4.62,1.21v14.27Z"/>
      <path class="cls-1" d="M408.37,69.21c-3.01,0-5.56-.99-7.66-2.98-2.11-1.98-3.16-4.66-3.16-8.03s1.05-6.04,3.16-8.02c2.1-1.98,4.66-2.98,7.66-2.98s5.56.99,7.66,2.98c2.1,1.98,3.16,4.66,3.16,8.02s-1.05,6.04-3.16,8.03c-2.1,1.98-4.66,2.98-7.66,2.98ZM416.85,179.94h-16.77v-93.77h16.77v93.77Z"/>
      <path class="cls-1" d="M474.46,81.75c6.73,0,12.41.87,17.04,2.61,4.63,1.74,8.35,4.21,11.18,7.39,2.82,3.19,4.84,6.97,6.04,11.36,1.2,4.39,1.8,9.23,1.8,14.52v58.61c-1.44.24-3.46.57-6.04.99-2.59.42-5.5.81-8.75,1.17-3.25.36-6.76.69-10.55.99-3.79.3-7.55.45-11.27.45-5.29,0-10.16-.54-14.61-1.62-4.45-1.08-8.3-2.8-11.54-5.14s-5.77-5.44-7.57-9.29c-1.8-3.85-2.7-8.48-2.7-13.89s1.05-9.62,3.16-13.34c2.1-3.72,4.96-6.73,8.57-9.02,3.61-2.28,7.81-3.97,12.62-5.05,4.81-1.08,9.86-1.62,15.15-1.62,1.68,0,3.43.09,5.23.27,1.8.18,3.52.42,5.14.72,1.62.3,3.03.57,4.24.81,1.2.24,2.04.42,2.52.54v-4.69c0-2.76-.3-5.5-.9-8.21-.6-2.7-1.68-5.11-3.25-7.21-1.56-2.1-3.7-3.79-6.4-5.05-2.7-1.26-6.22-1.89-10.55-1.89-5.53,0-10.37.39-14.52,1.17-4.15.78-7.24,1.59-9.29,2.43l-1.98-13.89c2.16-.96,5.77-1.89,10.82-2.8,5.05-.9,10.52-1.35,16.41-1.35ZM475.91,165.78c3.97,0,7.48-.09,10.55-.27,3.07-.18,5.62-.51,7.66-.99v-27.95c-1.2-.6-3.16-1.11-5.86-1.53-2.71-.42-5.98-.63-9.83-.63-2.52,0-5.2.18-8.02.54-2.83.36-5.41,1.11-7.75,2.25-2.34,1.14-4.3,2.7-5.86,4.69-1.56,1.98-2.34,4.6-2.34,7.85,0,6.01,1.92,10.19,5.77,12.53,3.85,2.34,9.08,3.52,15.69,3.52Z"/>
      <path class="cls-1" d="M547.61,84.24h35.53v14.07h-35.53v43.28c0,4.69.36,8.57,1.08,11.63.72,3.07,1.8,5.47,3.25,7.21,1.44,1.74,3.25,2.98,5.41,3.7,2.16.72,4.69,1.08,7.57,1.08,5.05,0,9.11-.57,12.17-1.71,3.07-1.14,5.05-1.91,6.25-2.39v15.06c-1.68.84-1.23.67-5.44,1.94-4.21,1.26-9.02,1.89-14.43,1.89-6.37,0-11.63-.81-15.78-2.43s-7.48-4.06-10.01-7.3c-2.52-3.25-4.3-7.24-5.32-11.99-1.02-4.75-1.53-10.25-1.53-16.5V58.09l16.77-2.89v29.03Z"/>
      <path class="cls-1" d="M603.76,131.07c0-8.3,1.2-15.54,3.61-21.73,2.4-6.19,5.59-11.33,9.56-15.42,3.97-4.09,8.53-7.15,13.71-9.2,5.17-2.04,10.46-3.07,15.87-3.07,12.62,0,22.3,3.94,29.03,11.81,6.73,7.88,10.1,19.87,10.1,35.98v2.8c0,1.14-.06,2.2-.18,3.16h-64.2c.72,9.74,3.55,17.13,8.48,22.18,4.93,5.05,7.75,7.57,23.08,7.57s31.1-8.56,33.14-9.53v14.81c-2.05,1.08-15.77,9.5-34.95,9.5s-32.04-9.56-35.89-13.88c-3.85-4.33-6.7-9.47-8.57-15.42-1.87-5.95-2.8-12.47-2.8-19.57ZM668.14,121.87c.12-7.57-1.78-13.8-5.68-18.66-3.91-4.87-9.29-7.3-16.14-7.3-3.85,0-7.24.75-10.19,2.25-2.95,1.5-5.44,3.46-7.48,5.86-2.05,2.41-3.64,5.17-4.78,8.3-1.14,3.13-1.89,6.31-2.25,9.56h46.53Z"/>
    </g>
  </g>
</svg>